<svg version="1" xmlns="http://www.w3.org/2000/svg" width="2666.667" height="2666.667" viewBox="0 0 2000.000000 2000.000000"><path d="M996.4 349.2c-2 3.5-5 8.8-6.7 11.8-1.7 3-3.8 6.6-4.7 8-.9 1.4-2 3.2-2.3 4-.4.8-1.7 3.1-2.8 5-2.1 3.4-18.6 31.9-22.7 39-1.1 1.9-3.6 6.4-5.7 10-2.1 3.6-4.9 8.5-6.3 11-1.4 2.5-5.2 8.9-8.4 14.3-3.2 5.5-5.8 10-5.8 10.2 0 .1-3 5.4-6.6 11.6-3.7 6.3-8 13.9-9.7 16.9-1.6 3-3.6 6.2-4.3 7.1-.8.8-1.4 1.8-1.4 2.1 0 .3-8.8 15.7-19.5 34.2-10.7 18.6-19.5 34.2-19.5 34.7s-.4.9-1 .9c-.5 0-1 .4-1 .9 0 .4-3 6-6.6 12.2-3.7 6.3-7.6 13-8.6 14.9-1.1 1.9-4.4 7.5-7.3 12.5-2.9 4.9-6.3 11-7.7 13.5-1.4 2.5-12.5 21.7-24.6 42.7-12.1 21-22.8 39.4-23.7 41-.8 1.5-2.5 4.4-3.6 6.3-2.6 4.3-16.5 28.3-19.1 32.7-1 1.8-2.6 4.8-3.6 6.5-1.1 1.8-10.3 17.9-20.7 35.8-10.3 17.9-27.3 47.3-37.7 65.5-10.5 18.1-20.3 35.1-21.9 37.8-1.6 2.6-2.9 5.1-2.9 5.5 0 .4-.5 1.3-1.2 2-.6.6-2.8 4.1-4.7 7.6-2.9 5.2-18.4 32-26.5 45.9-2.5 4.3-24.5 42.4-26.6 46.2-8.1 14.2-21.4 37.2-22 38-.4.5-1.9 3-3.2 5.5-2.6 4.7-24.8 43.3-27.9 48.5-1 1.6-4 6.8-6.7 11.5s-9.9 17.3-16.1 28c-21.6 37.3-26.6 46-28.1 48.7-.8 1.6-2.5 4.4-3.7 6.3-1.1 1.9-3 5.1-4.1 7-1 1.9-5.8 10.2-10.6 18.3-4.7 8.2-8.6 15.1-8.6 15.3 0 .2-1.1 2.3-2.6 4.5-1.4 2.2-3.3 5.5-4.3 7.2-2.7 4.7-56.4 97.7-70.7 122.5-6.8 11.7-12.4 21.7-12.4 22.3 0 .5-.4.9-1 .9-.5 0-1 .4-1 1 0 .5-2.2 4.7-5 9.4-2.7 4.7-5 8.9-5 9.5 0 .5-.4 1.1-.8 1.3-.4.1-1.9 2.3-3.3 4.8-9.2 16.2-20.4 35.5-21 36-.3.3-.8 1.3-1.2 2.2-.3.9-6.2 11.3-13 23-24.8 42.7-39.7 68.6-40.2 70-.5 1.3 91.9 1.5 691.8 1.5h692.5l-2-3.6c-1.1-2-9.7-16.9-19.1-33.1-17.9-31-18.4-31.9-23.8-41.5-1.8-3.3-3.7-6.2-4.1-6.3-.4-.2-.8-.7-.8-1.2s-4.8-9.1-10.6-19.2-11.6-20.1-12.9-22.3c-2.2-4-9.4-16.3-33.8-58.5-7.2-12.4-13.5-23.4-14.1-24.5-.6-1.1-4.7-8.2-9-15.8-6.1-10.4-8.5-13.7-10-13.8-1.2 0-188.3-.1-415.8-.1-227.5-.1-413.6-.4-413.4-.7 8-13.8 38.6-66.9 40.4-70.1 1.4-2.5 4.3-7.3 6.4-10.8 2.1-3.4 3.8-6.4 3.8-6.6 0-.3 2.1-4 4.7-8.3 2.5-4.3 5.9-10.3 7.6-13.3 1.6-3 3.5-6.2 4.1-7 .6-.8 1.6-2.4 2.2-3.5.6-1.1 8.2-14.4 16.9-29.5s16.4-28.4 17-29.5c1-1.8 6.4-11 8.5-14.5.5-.8 8.4-14.6 17.6-30.5 9.2-16 20.1-34.9 24.2-42 4.1-7.2 9.9-17.3 13-22.5 7.6-13.3 9.2-16.1 11.3-19.5 2-3.4 3.2-5.5 7.9-14 1.8-3.3 3.6-6.5 4.1-7 1.6-2.1 11.9-20.8 11.9-21.6 0-.5.3-.9.8-.9.4 0 1.8-2.1 3.2-4.8 1.4-2.6 4.6-8.2 7.2-12.5 2.7-4.3 4.8-8 4.8-8.2 0-.2 7.3-12.9 16.1-28.2 8.9-15.3 17-29.4 18.1-31.3 1-1.9 2.3-4.2 2.9-5 .5-.8 5.4-9.4 11-19 5.5-9.6 10.4-17.8 10.8-18.3.4-.4 1.4.5 2.2 2 .7 1.6 3.5 6.4 6 10.8 6.7 11.5 30.9 53.4 32.9 57 .9 1.6 10.8 18.7 22 38 11.1 19.2 21.3 36.8 22.5 39 1.2 2.2 4.6 8 7.4 13 2.9 4.9 6.3 10.8 7.6 13 5.3 9.5 6.5 11.6 10.2 17.7 2.2 3.5 4.2 7.1 4.6 7.8.3.8 5.7 10.3 11.9 21l11.4 19.5 138.7.1 138.7.1-1.9-3.1c-1-1.7-4.5-7.6-7.7-13.1-9.3-16.2-23.4-40.7-25.9-45-8.8-15.5-25.2-43.6-27.1-46.7-1.3-2.1-2.4-4-2.4-4.2 0-.3-2.5-4.6-5.5-9.7-3-5-5.5-9.3-5.5-9.4 0-.2-6.4-11.3-14.2-24.7-7.8-13.3-15.2-26.3-16.6-28.8-1.3-2.5-3.9-7-5.7-10-8.3-13.8-24.5-42.2-24.5-43.1 0-.5-.4-.9-1-.9-.5 0-1-.4-1-.9s-4.1-8-9.2-16.8c-5-8.7-9.9-17.2-10.8-18.8-3.9-6.8-8.1-14.1-9-15.5-1.1-1.8-7.6-13.1-10.3-18-1-1.9-2.3-4-2.7-4.5-.4-.6-1.9-3-3.2-5.5-1.4-2.5-8.5-14.8-15.7-27.3-7.3-12.6-14.1-24.5-15.3-26.5-1.1-2-2.4-4.2-2.8-4.7-.4-.6-1.9-3-3.2-5.5-1.4-2.5-6.7-11.7-11.8-20.5-5.1-8.8-15.1-26.1-22.2-38.5-7.1-12.4-13.4-23.2-13.9-24-3.2-5.3-31.9-55.2-31.9-55.5 0-.1-1.8-3.3-4.1-7-2.2-3.7-4.9-8.3-6-10.1-1-1.9-2.8-5-3.9-7-1.1-1.9-3.8-6.5-5.9-10.2-2.1-3.7-5.7-10.1-8.1-14.2-2.4-4.1-5.3-9.1-6.5-11-1.9-3-4.2-7-13.6-23.7-3-5.3-5.1-8.9-14.9-25.8l-11.3-19.5c-1.1-1.9-5.2-9.1-9.2-16-24.3-41.9-28.5-49.2-28.5-49.8 0-.4-.7-1.5-1.4-2.5-1.3-1.7-1.7-1.3-5.2 4.5z"/></svg>